<svg width="38" height="38" viewBox="0 0 38 38" fill="none" xmlns="http://www.w3.org/2000/svg">
<path d="M9.27009 16.9956V23.1759M27.8108 13.9055V20.0857M26.2658 6.18018C30.0492 6.18018 32.0955 6.7592 33.1137 7.20833C33.2493 7.26814 33.3171 7.29804 33.5127 7.48478C33.63 7.59672 33.8441 7.92516 33.8992 8.07765C33.9911 8.33204 33.9911 8.4711 33.9911 8.74922V25.3562C33.9911 26.7603 33.9911 27.4623 33.7805 27.8232C33.5664 28.1903 33.3598 28.3609 32.9589 28.502C32.5648 28.6407 31.7692 28.4878 30.1781 28.1821C29.0645 27.9681 27.7437 27.811 26.2658 27.811C21.6306 27.811 16.9954 30.9012 10.8152 30.9012C7.03175 30.9012 4.98543 30.3221 3.96726 29.873C3.83166 29.8132 3.76387 29.7833 3.56819 29.5966C3.4509 29.4846 3.23681 29.1562 3.18173 29.0037C3.08984 28.7493 3.08984 28.6102 3.08984 28.3321L3.08984 11.7252C3.08984 10.3211 3.08984 9.61902 3.3004 9.25816C3.51458 8.89109 3.72114 8.72044 4.12204 8.57937C4.51615 8.44068 5.3117 8.59354 6.90279 8.89925C8.01646 9.11323 9.33727 9.2703 10.8152 9.2703C15.4503 9.2703 20.0855 6.18018 26.2658 6.18018ZM22.4031 18.5407C22.4031 20.674 20.6738 22.4033 18.5405 22.4033C16.4072 22.4033 14.6778 20.674 14.6778 18.5407C14.6778 16.4074 16.4072 14.678 18.5405 14.678C20.6738 14.678 22.4031 16.4074 22.4031 18.5407Z" stroke="#484139" stroke-width="2.4721" stroke-linecap="round" stroke-linejoin="round"/>
</svg>
