<svg width="34" height="34" viewBox="0 0 34 34" fill="none" xmlns="http://www.w3.org/2000/svg">
<path d="M22.474 29.4969V27.8114C22.474 25.4514 22.474 24.2714 22.0147 23.3701C21.6107 22.5772 20.9661 21.9325 20.1732 21.5286C19.2718 21.0693 18.0919 21.0693 15.7319 21.0693H9.55166C7.19171 21.0693 6.01173 21.0693 5.11035 21.5286C4.31747 21.9325 3.67284 22.5772 3.26885 23.3701C2.80957 24.2714 2.80957 25.4514 2.80957 27.8114V29.4969M22.474 8.42786L25.2832 11.2371L30.9016 5.61865M17.5579 10.5348C17.5579 13.2499 15.3569 15.4509 12.6418 15.4509C9.92669 15.4509 7.72568 13.2499 7.72568 10.5348C7.72568 7.81967 9.92669 5.61865 12.6418 5.61865C15.3569 5.61865 17.5579 7.81967 17.5579 10.5348Z" stroke="#484139" stroke-width="2.43464" stroke-linecap="round" stroke-linejoin="round"/>
</svg>
