<svg width="32" height="32" viewBox="0 0 32 32" fill="none" xmlns="http://www.w3.org/2000/svg">
<path d="M8.4695 26.059H6.51508C5.07588 26.059 3.90918 24.8923 3.90918 23.4531V5.21185C3.90918 3.77266 5.07588 2.60596 6.51508 2.60596H24.7563C26.1955 2.60596 27.3622 3.77266 27.3622 5.21185V23.4531C27.3622 24.8923 26.1955 26.059 24.7563 26.059H22.8019M15.6357 24.7561C17.7945 24.7561 19.5446 23.006 19.5446 20.8472C19.5446 18.6884 17.7945 16.9384 15.6357 16.9384C13.4769 16.9384 11.7269 18.6884 11.7269 20.8472C11.7269 23.006 13.4769 24.7561 15.6357 24.7561ZM15.6357 24.7561L15.6636 24.7558L11.5036 28.9158L7.81834 25.2305L11.7525 21.2964M15.6357 24.7561L19.7958 28.9158L23.4811 25.2305L19.5469 21.2964M11.7269 7.81775H19.5446M9.12097 12.3781H22.1505" stroke="#484139" stroke-width="2.4721" stroke-linecap="round" stroke-linejoin="round"/>
</svg>
