<svg width="30" height="30" viewBox="0 0 30 30" fill="none" xmlns="http://www.w3.org/2000/svg">
<path d="M10.9563 14.6078H5.60006C4.91829 14.6078 4.57741 14.6078 4.31701 14.7404C4.08796 14.8571 3.90173 15.0434 3.78502 15.2724C3.65234 15.5328 3.65234 15.8737 3.65234 16.5555V23.6159C3.65234 24.2977 3.65234 24.6386 3.78502 24.899C3.90173 25.128 4.08796 25.3143 4.31701 25.431C4.57741 25.5637 4.91829 25.5637 5.60006 25.5637H10.9563M10.9563 25.5637H18.2602M10.9563 25.5637L10.9563 10.4689C10.9563 9.78709 10.9563 9.44621 11.089 9.18581C11.2057 8.95676 11.3919 8.77053 11.6209 8.65382C11.8813 8.52114 12.2222 8.52114 12.904 8.52114H16.3125C16.9943 8.52114 17.3351 8.52114 17.5955 8.65382C17.8246 8.77053 18.0108 8.95676 18.1275 9.18581C18.2602 9.44621 18.2602 9.78709 18.2602 10.4689V25.5637M18.2602 25.5637H23.6164C24.2982 25.5637 24.6391 25.5637 24.8995 25.431C25.1285 25.3143 25.3148 25.128 25.4315 24.899C25.5641 24.6386 25.5641 24.2977 25.5641 23.6159V5.59957C25.5641 4.91781 25.5641 4.57692 25.4315 4.31652C25.3148 4.08747 25.1285 3.90124 24.8995 3.78454C24.6391 3.65186 24.2982 3.65186 23.6164 3.65186H20.2079C19.5262 3.65186 19.1853 3.65186 18.9249 3.78454C18.6958 3.90124 18.5096 4.08747 18.3929 4.31653C18.2602 4.57692 18.2602 4.91781 18.2602 5.59957V9.73847" stroke="#484139" stroke-width="2.24736" stroke-linecap="round" stroke-linejoin="round"/>
</svg>
