<svg width="32" height="32" viewBox="0 0 32 32" fill="none" xmlns="http://www.w3.org/2000/svg">
<path d="M20.9635 5.24099C22.1819 5.24099 22.7912 5.24099 23.291 5.37492C24.6474 5.73837 25.7069 6.79784 26.0703 8.15425C26.2043 8.65409 26.2043 9.26331 26.2043 10.4818V22.5355C26.2043 24.7368 26.2043 25.8375 25.7759 26.6783C25.399 27.4179 24.7977 28.0192 24.0581 28.396C23.2173 28.8244 22.1167 28.8244 19.9153 28.8244H11.5301C9.3288 28.8244 8.22814 28.8244 7.38734 28.396C6.64776 28.0192 6.04645 27.4179 5.66962 26.6783C5.24121 25.8375 5.24121 24.7368 5.24121 22.5355V10.4818C5.24121 9.26331 5.24121 8.65409 5.37514 8.15425C5.73859 6.79784 6.79807 5.73837 8.15448 5.37492C8.65431 5.24099 9.26353 5.24099 10.482 5.24099M12.5783 7.86137H18.8672C19.601 7.86137 19.9679 7.86137 20.2481 7.71857C20.4947 7.59295 20.6951 7.39252 20.8207 7.14599C20.9635 6.86573 20.9635 6.49884 20.9635 5.76506V4.71691C20.9635 3.98314 20.9635 3.61625 20.8207 3.33598C20.6951 3.08945 20.4947 2.88902 20.2481 2.76341C19.9679 2.62061 19.601 2.62061 18.8672 2.62061H12.5783C11.8445 2.62061 11.4776 2.62061 11.1974 2.76341C10.9508 2.88902 10.7504 3.08945 10.6248 3.33598C10.482 3.61625 10.482 3.98314 10.482 4.71691V5.76506C10.482 6.49884 10.482 6.86573 10.6248 7.14599C10.7504 7.39252 10.9508 7.59295 11.1974 7.71857C11.4776 7.86137 11.8445 7.86137 12.5783 7.86137Z" stroke="#484139" stroke-width="2.62038" stroke-linecap="round" stroke-linejoin="round"/>
</svg>
