<svg width="31" height="31" viewBox="0 0 31 31" fill="none" xmlns="http://www.w3.org/2000/svg">
<path d="M30.461 15.2305C30.461 23.6421 23.6421 30.461 15.2305 30.461C6.81893 30.461 0 23.6421 0 15.2305C0 6.81893 6.81893 0 15.2305 0C23.6421 0 30.461 6.81893 30.461 15.2305Z" fill="url(#paint0_linear_286_84)"/>
<path d="M7.1084 14.2669C6.57625 14.2669 6.14485 14.6983 6.14485 15.2305C6.14485 15.7626 6.57625 16.194 7.1084 16.194V15.2305V14.2669ZM23.0202 15.9118C23.3965 15.5355 23.3965 14.9254 23.0202 14.5491L16.8882 8.41716C16.512 8.04087 15.9019 8.04087 15.5256 8.41716C15.1493 8.79345 15.1493 9.40353 15.5256 9.77982L20.9762 15.2305L15.5256 20.6811C15.1493 21.0574 15.1493 21.6675 15.5256 22.0438C15.9019 22.4201 16.512 22.4201 16.8882 22.0438L23.0202 15.9118ZM7.1084 15.2305V16.194H22.3389V15.2305V14.2669H7.1084V15.2305Z" fill="white"/>
<defs>
<linearGradient id="paint0_linear_286_84" x1="17.4869" y1="1.69228" x2="-1.12818" y2="39.4865" gradientUnits="userSpaceOnUse">
<stop stop-color="#484139"/>
<stop offset="1" stop-color="#CDC6BE"/>
</linearGradient>
</defs>
</svg>
