<svg width="27" height="27" viewBox="0 0 27 27" fill="none" xmlns="http://www.w3.org/2000/svg">
<path d="M2.25 19.125V18.956C2.25 18.6 2.25 18.422 2.27723 18.2485C2.30141 18.0945 2.34153 17.9434 2.39694 17.7977C2.45935 17.6336 2.54767 17.4791 2.72432 17.1699L6.75 10.125M2.25 19.125C2.25 21.6103 4.26472 23.625 6.75 23.625C9.23528 23.625 11.25 21.6103 11.25 19.125M2.25 19.125V18.9C2.25 18.585 2.25 18.4275 2.31131 18.3071C2.36524 18.2013 2.45129 18.1152 2.55713 18.0613C2.67746 18 2.83497 18 3.15 18H10.35C10.665 18 10.8225 18 10.9429 18.0613C11.0487 18.1152 11.1348 18.2013 11.1887 18.3071C11.25 18.4275 11.25 18.585 11.25 18.9V19.125M6.75 10.125L10.7757 17.1699C10.9523 17.4791 11.0407 17.6336 11.1031 17.7977C11.1585 17.9434 11.1986 18.0945 11.2228 18.2485C11.25 18.422 11.25 18.6 11.25 18.956V19.125M6.75 10.125L20.25 7.875M15.75 16.875V16.706C15.75 16.35 15.75 16.172 15.7772 15.9985C15.8014 15.8445 15.8415 15.6934 15.8969 15.5477C15.9593 15.3836 16.0477 15.2291 16.2243 14.9199L20.25 7.875M15.75 16.875C15.75 19.3603 17.7647 21.375 20.25 21.375C22.7353 21.375 24.75 19.3603 24.75 16.875M15.75 16.875V16.65C15.75 16.335 15.75 16.1775 15.8113 16.0571C15.8652 15.9513 15.9513 15.8652 16.0571 15.8113C16.1775 15.75 16.335 15.75 16.65 15.75H23.85C24.165 15.75 24.3225 15.75 24.4429 15.8113C24.5487 15.8652 24.6348 15.9513 24.6887 16.0571C24.75 16.1775 24.75 16.335 24.75 16.65V16.875M20.25 7.875L24.2757 14.9199C24.4523 15.2291 24.5407 15.3836 24.6031 15.5477C24.6585 15.6934 24.6986 15.8445 24.7228 15.9985C24.75 16.172 24.75 16.35 24.75 16.706V16.875M13.5 3.375V9" stroke="#484139" stroke-width="2.25" stroke-linecap="round" stroke-linejoin="round"/>
</svg>
